<svg xmlns="http://www.w3.org/2000/svg" xmlns:xlink="http://www.w3.org/1999/xlink" width="1344" zoomAndPan="magnify" viewBox="0 0 1008 1295.99994" height="1728" preserveAspectRatio="xMidYMid meet" version="1.0"><defs><clipPath id="3b9fb4b1c2"><path d="M 286.863281 368 L 790.863281 368 L 790.863281 611.683594 L 286.863281 611.683594 Z M 286.863281 368 " clip-rule="nonzero"/></clipPath><clipPath id="138cb959e1"><path d="M 188.949219 476 L 731.511719 476 L 731.511719 611.699219 L 188.949219 611.699219 Z M 188.949219 476 " clip-rule="nonzero"/></clipPath><clipPath id="97b2decb0d"><path d="M 195.617188 611.773438 L 796 611.773438 L 796 712 L 195.617188 712 Z M 195.617188 611.773438 " clip-rule="nonzero"/></clipPath></defs><g clip-path="url(#3b9fb4b1c2)"><path fill="#ffd0b1" d="M 790.878906 611.683594 L 286.996094 611.683594 C 305.179688 606.09375 323.351562 597.765625 337.046875 584.125 C 359.515625 561.746094 381.789062 543.496094 411.097656 534.71875 C 424.679688 530.652344 439.765625 528.007812 449.300781 516.132812 C 455.078125 508.921875 457.9375 499.277344 462.832031 491.238281 C 475.054688 471.164062 497.523438 464.226562 516.949219 454.1875 C 546.234375 439.070312 571.597656 414.035156 589.042969 383.019531 C 591.054688 379.460938 593 375.742188 595.871094 373.089844 C 619.230469 351.46875 654.402344 408.824219 662.496094 427.75 C 667.03125 438.375 670.3125 449.652344 675.425781 459.949219 C 682.234375 473.6875 692.054688 485.214844 700.558594 497.710938 C 731.269531 542.832031 749.726562 582.179688 790.878906 611.683594 Z M 790.878906 611.683594 " fill-opacity="1" fill-rule="nonzero"/></g><g clip-path="url(#138cb959e1)"><path fill="#f67370" d="M 752.128906 616.726562 C 715.140625 616.78125 692.960938 572.0625 662.394531 557.5 C 625.46875 539.898438 590.878906 571.257812 553.773438 562.285156 C 489.832031 546.808594 454.75 464.210938 380.914062 478.132812 C 349.605469 484.035156 335.769531 509.144531 312.117188 526.660156 C 292.1875 541.417969 267.550781 542.816406 246.433594 554.699219 C 216.796875 571.386719 198.390625 607.738281 185.921875 637.886719 C 176.140625 661.539062 154.792969 716.210938 180.65625 737.066406 C 196.761719 750.066406 224.488281 746.3125 243.480469 746.417969 C 299.597656 746.722656 355.722656 744.910156 411.808594 743.273438 " fill-opacity="1" fill-rule="evenodd"/></g><g clip-path="url(#97b2decb0d)"><path fill="#536ab4" d="M 795.496094 596.152344 C 796.078125 606.363281 791.253906 618.792969 787.566406 627.992188 C 769 674.328125 725.496094 702.363281 677.179688 710.101562 C 644.921875 715.261719 610.007812 708.722656 581.5 692.910156 C 559.710938 680.820312 537.742188 650.894531 511.90625 648.136719 C 486.84375 645.464844 470.035156 675.074219 445.382812 674.792969 C 426.050781 674.585938 400.121094 639.816406 380.460938 646.292969 C 350.988281 656.027344 344.875 696.679688 306.546875 697.582031 C 230.675781 699.363281 175.011719 604.886719 198.128906 534.929688 " fill-opacity="1" fill-rule="evenodd"/></g></svg>